<?xml version="1.0" encoding="UTF-8"?>
<svg id="Layer_2" data-name="Layer 2" xmlns="http://www.w3.org/2000/svg" viewBox="0 0 78.84 58.29">
  <defs>
    <style>
      .cls-1 {
        fill: #d8b365;
      }
    </style>
  </defs>
  <g id="Layer_1-2" data-name="Layer 1">
    <g>
      <path class="cls-1" d="M68.6,29.22c-1.38,0-2.5,1.12-2.5,2.5v19.35c0,1.23-1,2.22-2.22,2.22H7.22c-1.23,0-2.22-1-2.22-2.22v-9.39l14.74-10.4c1.74-1.23,4.07-1.1,5.66.32,0,0,4.82,3.68,5.53,4.13,1.17.73,2.71.38,3.45-.79.73-1.17.38-2.71-.79-3.45-.48-.3-4.86-3.63-4.86-3.63-3.34-2.97-8.21-3.24-11.86-.67l-11.86,8.36V7.22c0-1.23,1-2.22,2.22-2.22h54.66c1.38,0,2.5-1.12,2.5-2.5s-1.12-2.5-2.5-2.5H7.22C3.24,0,0,3.24,0,7.22v43.85c0,3.98,3.24,7.22,7.22,7.22h56.65c3.98,0,7.22-3.24,7.22-7.22v-19.35c0-1.38-1.12-2.5-2.5-2.5Z"/>
      <path class="cls-1" d="M28.76,17.52c0,4.99,4.06,9.05,9.05,9.05s9.05-4.06,9.05-9.05-4.06-9.05-9.05-9.05-9.05,4.06-9.05,9.05ZM41.87,17.52c0,2.23-1.82,4.05-4.05,4.05s-4.05-1.82-4.05-4.05,1.82-4.05,4.05-4.05,4.05,1.82,4.05,4.05Z"/>
      <path class="cls-1" d="M77.4,8.39l-3.57-3.57c-.93-.93-2.16-1.44-3.48-1.44s-2.55.51-3.48,1.44l-29.83,29.83c-.05.05-.09.11-.14.17-.04.05-.08.09-.11.14-.1.14-.18.28-.24.43,0,0,0,0,0,.01h0s0,0,0,0l-5.08,12.39c-.35.85-.15,1.82.5,2.47.43.43,1.01.67,1.61.67.29,0,.58-.06.86-.17l12.4-5.08s0,0,0,0c.16-.06.3-.15.44-.25.05-.03.09-.07.13-.11.06-.05.12-.09.17-.14l29.83-29.83c.93-.93,1.44-2.16,1.44-3.48s-.51-2.55-1.44-3.48ZM70.62,8.03l3.57,3.57c.15.15.15.38,0,.53l-1.7,1.7-4.1-4.1,1.7-1.7c.15-.15.38-.15.53,0ZM65.18,12.94l4.1,4.1-23.31,23.31-4.1-4.1,23.31-23.31ZM37.73,44.49l1.73-4.22,2.49,2.49-4.22,1.73Z"/>
    </g>
  </g>
</svg>