<?xml version="1.0" encoding="UTF-8"?>
<svg id="Layer_2" data-name="Layer 2" xmlns="http://www.w3.org/2000/svg" viewBox="0 0 70.05 74.65">
  <defs>
    <style>
      .cls-1 {
        fill: #d8b365;
      }
    </style>
  </defs>
  <g id="Layer_1-2" data-name="Layer 1">
    <g>
      <path class="cls-1" d="M64.52,5.35H5.53C2.48,5.35,0,7.83,0,10.88v.96c0,3.05,2.48,5.53,5.53,5.53h.85l2.06,47.48c.24,5.49,4.73,9.8,10.23,9.8h31.65c5.39,0,9.88-4.21,10.22-9.6l3.01-47.68h.97c3.05,0,5.53-2.48,5.53-5.53v-.96c0-3.05-2.48-5.53-5.53-5.53ZM55.55,64.74c-.17,2.75-2.47,4.91-5.23,4.91h-31.65c-2.81,0-5.11-2.2-5.24-5.01l-2.05-47.26h47.15l-2.99,47.37ZM65.05,11.85c0,.29-.24.53-.53.53H5.53c-.29,0-.53-.24-.53-.53v-.96c0-.29.24-.53.53-.53h58.99c.29,0,.53.24.53.53v.96Z"/>
      <path class="cls-1" d="M24.84,5h20.37c1.38,0,2.5-1.12,2.5-2.5s-1.12-2.5-2.5-2.5h-20.37c-1.38,0-2.5,1.12-2.5,2.5s1.12,2.5,2.5,2.5Z"/>
      <path class="cls-1" d="M23.75,67.55c1.38,0,2.5-1.12,2.5-2.5V22.54c0-1.38-1.12-2.5-2.5-2.5s-2.5,1.12-2.5,2.5v42.51c0,1.38,1.12,2.5,2.5,2.5Z"/>
      <path class="cls-1" d="M35.03,67.55c1.38,0,2.5-1.12,2.5-2.5V22.54c0-1.38-1.12-2.5-2.5-2.5s-2.5,1.12-2.5,2.5v42.51c0,1.38,1.12,2.5,2.5,2.5Z"/>
      <path class="cls-1" d="M46.31,67.27c1.38,0,2.5-1.12,2.5-2.5V22.26c0-1.38-1.12-2.5-2.5-2.5s-2.5,1.12-2.5,2.5v42.51c0,1.38,1.12,2.5,2.5,2.5Z"/>
    </g>
  </g>
</svg>