<?xml version="1.0" encoding="UTF-8"?>
<svg xmlns="http://www.w3.org/2000/svg" viewBox="0 0 82.6 58.29">
  <g fill="#d8b365">
    <path d="M75.38,0H18.73c-3.98,0-7.22,3.24-7.22,7.22,0,1.38,1.12,2.5,2.5,2.5s2.5-1.12,2.5-2.5c0-1.23,1-2.22,2.22-2.22h56.65c1.23,0,2.22,1,2.22,2.22v17.44l-16.99,11.24c-3.15,2.08-7.16,2.25-10.46.44-1.21-.66-2.73-.22-3.39.99-.66,1.21-.22,2.73.99,3.39,2.28,1.25,4.78,1.87,7.28,1.87,2.91,0,5.82-.84,8.35-2.52l14.23-9.41v20.41c0,1.23-1,2.22-2.22,2.22h-41.24c-1.38,0-2.5,1.12-2.5,2.5s1.12,2.5,2.5,2.5h41.24c3.98,0,7.22-3.24,7.22-7.22V7.22c0-3.98-3.24-7.22-7.22-7.22Z"/>
    <path d="M52.65,28.27c4.99,0,9.05-4.06,9.05-9.05s-4.06-9.05-9.05-9.05-9.05,4.06-9.05,9.05,4.06,9.05,9.05,9.05ZM52.65,15.17c2.23,0,4.05,1.82,4.05,4.05s-1.82,4.05-4.05,4.05-4.05-1.82-4.05-4.05,1.82-4.05,4.05-4.05Z"/>
    <path d="M46.04,31.61c-.61-1.48-2.04-2.43-3.64-2.43h-5.29v-12.12c0-2.17-1.77-3.94-3.94-3.94H13.18c-2.17,0-3.94,1.77-3.94,3.94v12.12H3.94c-1.6,0-3.03.96-3.64,2.43s-.28,3.17.85,4.3l19.23,19.23c.77.77,1.78,1.15,2.79,1.15s2.02-.38,2.79-1.15l19.23-19.23c1.13-1.13,1.47-2.82.86-4.3ZM23.17,50.86L6.5,34.18h3.8c2.17,0,3.94-1.77,3.94-3.94v-12.12h17.87v12.12c0,2.17,1.77,3.94,3.94,3.94h3.8l-16.68,16.68Z"/>
  </g>
</svg>
